<?xml version="1.0" standalone="no"?>
<!DOCTYPE svg PUBLIC "-//W3C//DTD SVG 20010904//EN"
 "http://www.w3.org/TR/2001/REC-SVG-20010904/DTD/svg10.dtd">
<svg version="1.0" xmlns="http://www.w3.org/2000/svg"
 width="334.000000pt" height="271.000000pt" viewBox="0 0 334.000000 271.000000"
 preserveAspectRatio="xMidYMid meet">

<g transform="translate(0.000000,271.000000) scale(0.100000,-0.100000)"
fill="#000000" stroke="none">
<path d="M1814 1885 c-50 -16 -121 -51 -129 -65 -3 -5 -17 -7 -31 -4 -17 4
-26 1 -30 -10 -4 -11 -18 -16 -43 -16 -35 0 -150 -26 -160 -35 -14 -14 14 -14
60 -1 29 9 70 16 91 16 l39 0 -46 -64 c-25 -35 -55 -87 -67 -115 -24 -60 -49
-71 -99 -46 -49 25 -118 78 -119 91 0 6 16 22 35 35 33 23 44 39 27 39 -16 0
-92 -60 -92 -73 0 -18 88 -86 147 -114 28 -13 53 -29 56 -36 8 -22 -5 -163
-18 -180 -7 -9 -41 -23 -76 -31 -42 -9 -54 -14 -34 -15 17 -1 45 3 63 8 18 6
39 8 46 5 7 -3 20 -35 28 -72 l15 -67 -5 68 c-3 46 -1 67 7 67 6 0 11 6 11 14
0 16 103 61 140 61 17 0 26 6 28 20 5 23 114 115 138 115 9 0 18 8 21 19 3 10
22 26 43 36 21 9 57 30 81 46 70 46 91 41 183 -48 87 -86 65 -45 -26 49 -32
32 -58 61 -58 64 0 2 25 34 55 69 81 95 68 100 -18 8 -44 -48 -75 -54 -126
-26 -35 21 -44 49 -35 109 3 24 3 55 0 69 -7 29 -34 32 -102 10z m86 -64 c0
-79 -9 -84 -95 -61 -39 11 -82 22 -97 25 -16 3 -28 9 -28 14 0 19 192 95 213
84 4 -2 7 -30 7 -62z m-84 -83 c34 -12 54 -26 57 -39 8 -30 -61 -162 -81 -154
-8 3 -25 -4 -39 -17 -20 -19 -37 -23 -119 -26 -81 -4 -98 -2 -114 13 -25 23
-25 36 1 88 39 78 97 147 124 147 13 0 27 5 30 11 9 13 72 3 141 -23z m138
-63 c34 -23 23 -46 -37 -83 -89 -53 -90 -53 -54 27 34 76 48 84 91 56z m-239
-230 c-34 -31 -58 -45 -77 -45 -21 0 -31 -7 -37 -23 -11 -28 -101 -69 -122
-56 -20 12 -14 130 8 146 10 7 55 12 121 12 57 0 107 3 110 6 3 3 15 5 26 5
17 -1 12 -9 -29 -45z"/>
<path d="M660 941 c-27 -5 -31 -8 -17 -13 15 -7 17 -24 17 -153 0 -122 -2
-145 -15 -145 -8 0 -15 -4 -15 -10 0 -6 36 -10 89 -10 75 0 93 3 122 23 61 41
65 113 8 143 l-31 16 21 19 c46 43 30 114 -30 130 -30 9 -102 8 -149 0z m133
-22 c28 -15 37 -28 37 -58 0 -41 -27 -61 -82 -61 l-48 0 0 58 c0 32 3 62 7 65
10 11 62 8 86 -4z m-1 -149 c61 -17 77 -72 33 -116 -21 -21 -33 -25 -73 -22
l-47 3 -3 64 c-4 83 9 93 90 71z"/>
<path d="M1770 915 c0 -14 0 -28 -1 -32 -2 -20 21 -11 27 11 5 23 10 25 81 28
41 2 76 2 78 0 2 -2 -44 -69 -101 -149 -57 -80 -101 -150 -98 -154 3 -5 58 -9
123 -9 l118 0 6 37 c4 20 4 39 1 42 -5 5 -29 -21 -36 -39 -5 -12 -158 -22
-158 -11 0 6 38 63 83 128 46 65 92 130 102 146 l17 27 -121 0 -121 0 0 -25z"/>
<path d="M1290 853 c-54 -21 -77 -86 -46 -128 10 -14 11 -25 2 -47 -8 -20 -8
-33 0 -46 9 -13 7 -23 -9 -44 -19 -25 -19 -28 -3 -52 20 -31 51 -40 118 -34
59 6 88 32 88 78 0 40 -28 60 -84 60 -56 0 -86 14 -86 40 0 16 7 19 39 17 70
-2 116 41 109 103 -2 16 2 25 11 25 30 0 23 25 -7 25 -16 0 -49 2 -73 5 -24 2
-51 2 -59 -2z m74 -35 c22 -31 20 -64 -5 -89 -22 -22 -55 -19 -76 9 -16 20
-17 74 -1 90 20 20 65 14 82 -10z m34 -220 c19 -16 14 -56 -7 -68 -30 -15 -92
-12 -113 7 -19 17 -24 53 -9 69 12 11 112 5 129 -8z"/>
<path d="M2110 838 c-19 -13 -40 -35 -47 -48 -27 -54 -7 -146 36 -170 35 -18
141 -9 141 12 0 5 -15 6 -35 2 -62 -11 -115 23 -115 75 0 20 6 21 81 21 l82 0
-6 46 c-6 54 -21 73 -68 80 -25 4 -43 0 -69 -18z m82 -15 c10 -9 18 -29 18
-45 0 -28 -1 -28 -60 -28 -54 0 -60 2 -60 20 0 25 43 70 66 70 10 0 26 -7 36
-17z"/>
<path d="M2574 851 c-54 -23 -85 -103 -64 -165 25 -78 111 -101 172 -47 27 24
32 36 36 88 4 55 2 63 -24 92 -31 34 -83 48 -120 32z m81 -36 c21 -20 25 -34
25 -82 0 -74 -18 -103 -65 -103 -48 0 -70 35 -70 113 0 50 4 62 24 78 31 26
57 24 86 -6z"/>
<path d="M945 841 c-3 -5 -1 -12 5 -16 5 -3 10 -41 10 -83 0 -99 13 -126 62
-130 21 -2 47 2 58 8 17 9 25 8 38 -2 18 -15 52 -13 52 3 0 5 -4 9 -10 9 -6 0
-10 43 -10 110 l0 110 -29 0 c-33 0 -49 -15 -26 -24 12 -4 15 -24 15 -89 0
-80 -1 -84 -25 -95 -67 -31 -85 -6 -85 114 0 93 0 94 -24 94 -14 0 -27 -4 -31
-9z"/>
<path d="M2320 840 c-13 -9 -13 -12 3 -21 14 -8 17 -25 17 -99 0 -83 -1 -90
-20 -90 -11 0 -20 -4 -20 -10 0 -6 31 -10 72 -10 44 0 68 4 63 9 -6 5 -21 11
-34 13 -22 3 -23 6 -23 87 0 92 5 101 60 101 22 0 32 5 32 15 0 20 -49 20 -78
-1 -20 -14 -22 -14 -22 0 0 18 -27 21 -50 6z"/>
<path d="M1500 785 c0 -12 17 -15 95 -15 78 0 95 3 95 15 0 12 -17 15 -95 15
-78 0 -95 -3 -95 -15z"/>
</g>
</svg>
